<svg version="1.1" xmlns="http://www.w3.org/2000/svg" xmlns:xlink="http://www.w3.org/1999/xlink" width="400" height="400" viewBox="0 0 400 400"><defs/><g><path fill="none" stroke="rgb(255,0,0)" paint-order="fill stroke markers" d=" M 23 20 L 197 20 L 197 20 A 3 3 0 0 1 200 23 L 200 87 L 200 87 A 3 3 0 0 1 197 90 L 23 90 L 23 90 A 3 3 0 0 1 20 87 L 20 23 L 20 23 A 3 3 0 0 1 23 20 Z" stroke-opacity="1" stroke-linecap="round" stroke-miterlimit="10" stroke-dasharray=""/><path fill="none" stroke="rgb(255,0,0)" paint-order="fill stroke markers" d=" M 50 40 A 10 10 0 1 1 49.99999500000042 39.99000000166666 Z" stroke-opacity="1" stroke-linecap="round" stroke-miterlimit="10" stroke-dasharray=""/><g><text fill="rgb(0,0,0)" stroke="none" font-family="sans-serif" font-size="12px" font-style="normal" font-weight="normal" text-decoration="undefined" x="40" y="70" text-anchor="start" dominant-baseline="alphabetic" transform="matrix(1 0 0 1 0 0)" fill-opacity="1">Name FABLAB</text></g><path fill="none" stroke="rgb(255,0,0)" paint-order="fill stroke markers" d=" M 100 100 L 200 100 L 200 300 L 150 250 L 50 150 L 100 100 L 100 100 Z" stroke-opacity="1" stroke-linecap="round" stroke-miterlimit="10" stroke-dasharray=""/></g></svg>